{"title":"Green.Zone.2010.1080p.BluRay.DTS.x264-GKNByNW","uid":11321492,"size":11689101300,"categoryP":"video","categoryS":"hd___movies","magnet":"?xt=urn:btih:62519395f2351f688761773eb7e5892f8fed5500&amp;dn=Green.Zone.2010.1080p.BluRay.DTS.x264-GKNByNW&amp;tr=udp%3A%2F%2Ftracker.openbittorrent.com%3A80&amp;tr=udp%3A%2F%2Fopen.demonii.com%3A1337&amp;tr=udp%3A%2F%2Ftracker.coppersurfer.tk%3A6969&amp;tr=udp%3A%2F%2Fexodus.desync.com%3A6969","seeders":0,"leechers":1,"uploader":"GKNByNW","files":9,"time":1414603571,"description":"Release Title : Green.Zone.2010.1080p.BluRay.DTS.x264-GKNByNW\nRelease Date : 12 March 2010 (USA)\nRelease Length : 1:54:46\nGenre : Action | Drama | Thriller\nLanguage : English\nSource : Region A Retail Blu-ray Disc (Proof included)\nTotal Size : 10.9GB\n\nimdB\n---- &lt;a href=&quot;\nhttp://www.imdb.com/title/tt0947810/&quot; rel=&quot;nofollow&quot; target=&quot;_NEW&quot;&gt;\nhttp://www.imdb.com/title/tt0947810/&lt;/a&gt;\n\nStoryline: Following the American invasion of Iraq in 2003\nChief Warrant Officer Roy Miller and his men are charged with\nfinding the so-called weapons of mass destruction, whose\nexistence justified American involvement, according to the\nPentagon and their man in Baghdad, Poundstone. Veteran CIA\noperative Marty tells Miller that there are no weapons, it is\na deception to allow the Americans to take over the country\nand install a puppet leader. Also suspicious of Poundstone is\nWall Street Journal reporter Lawrie Dayne, who lets slip to\nMiller that Poundstone told her he had secret talks in Jordan\nwith an important Iraqi, code-named Magellan, who told him\nabout the weapons, though it now seems likely Magellan's true\ninformation was to the contrary. So begins a hunt for the\ntruth. Who's playing whom?\n\nCast\n----\nIgal Naor\t\t~\tAl Rawi\nSaid Faraj\t\t~\tSeyyed Hamza\nFaycal Attougui\t\t~\tAl Rawi Bodyguard (as Faical Attougui)\nAymen Hamdouchi\t\t~\tAyad Hamza\nMatt Damon\t\t~\tMiller\nNicoye Banks\t\t~\tPerry\nJerry Della Salla\t~\tWilkins\nSean Huze\t\t~\tConway\nMichael J. Dwyer\t~\tMet-D (as Michael Dwyer)\nEdouard H.R. Gluck\t~\tMet-D\nBrian Siefkes\t\t~\tMet-D\nAdam Wendling\t\t~\tMet-D\nAbdul Henderson\t\t~\tMet-D\nPaul Karsko\t\t~\tMet-D\nRobert Miller\t\t~\tMet-D\n\n~~~~~~~~~~~~~~~~~~~~\n\nVideo Information\n-----------------\nID : 1\nFormat : AVC\nFormat/Info : Advanced Video Codec\nFormat profile : &lt;a class=&quot;__cf_email__&quot; href=&quot;/cdn-cgi/l/email-protection&quot; data-cfemail=&quot;95ddfcf2fdd5d9a1bba4&quot;&gt;[email&amp;#160;protected]&lt;/a&gt;&lt;script cf-hash='f9e31' type=&quot;text/javascript&quot;&gt;\n/* &lt;![CDATA[ */!function(){try{var t=&quot;currentScript&quot;in document?document.currentScript:function(){for(var t=document.getElementsByTagName(&quot;script&quot;),e=t.length;e--;)if(t[e].getAttribute(&quot;cf-hash&quot;))return t[e]}();if(t&amp;&amp;t.previousSibling){var e,r,n,i,c=t.previousSibling,a=c.getAttribute(&quot;data-cfemail&quot;);if(a){for(e=&quot;&quot;,r=parseInt(a.substr(0,2),16),n=2;a.length-n;n+=2)i=parseInt(a.substr(n,2),16)^r,e+=String.fromCharCode(i);e=document.createTextNode(e),c.parentNode.replaceChild(e,c)}}}catch(u){}}();/* ]]&gt; */&lt;/script&gt;\nFormat settings, CABAC : Yes\nFormat settings, ReFrames : 5 frames\nCodec ID : V_MPEG4/ISO/AVC\nDuration : 1h 54mn\nBit rate : 12.0 Mbps\nWidth : 1 920 pixels\nHeight : 800 pixels\nDisplay aspect ratio : 2.40:1\nFrame rate mode : Constant\nFrame rate : 23.976 fps\nColor space : YUV\nChroma subsampling : 4:2:0\nBit depth : 8 bits\nScan type : Progressive\nBits/(Pixel*Frame) : 0.326\nStream size : 9.44 GiB (87%)\nWriting library : x264 core 138 r2358 9e941d1\n\nAudio Information\n-----------------\nID : 2\nFormat : DTS\nFormat/Info : Digital Theater Systems\nMode : 16\nFormat settings, Endianness : Big\nCodec ID : A_DTS\nDuration : 1h 54mn\nBit rate mode : Constant\nBit rate : 1 509 Kbps\nChannel(s) : 6 channels\nChannel positions : Front: L C R, Side: L R, LFE\nSampling rate : 48.0 KHz\nBit depth : 24 bits\nCompression mode : Lossy\nStream size : 1.21 GiB (11%)\nTitle : English\nLanguage : English\nDefault : Yes\nForced : No\n\nText #1 Information\n-------------------\nID : 3\nFormat : PGS\nMuxing mode : zlib\nCodec ID : S_HDMV/PGS\nCodec ID/Info : The same subtitle format used on BDs/HD-DVDs\nTitle : English SDH\nLanguage : English\nDefault : No\nForced : No\n\nText #2 Information\n-------------------\nID : 4\nFormat : PGS\nMuxing mode : zlib\nCodec ID : S_HDMV/PGS\nCodec ID/Info : The same subtitle format used on BDs/HD-DVDs\nTitle : Spanish\nLanguage : Spanish\nDefault : No\nForced : No\n\nText #3 Information\n-------------------\nID : 5\nFormat : PGS\nMuxing mode : zlib\nCodec ID : S_HDMV/PGS\nCodec ID/Info : The same subtitle format used on BDs/HD-DVDs\nTitle : French\nLanguage : French\nDefault : No\nForced : No\n\nChapters : Yes\n\n~~~~~~~~~~~~~~~~~~~~\n\nPlease seed as much as you take.\n\n---==* GKNByNW *==","torrent":{"xt":"urn:btih:62519395f2351f688761773eb7e5892f8fed5500","amp;dn":"Green.Zone.2010.1080p.BluRay.DTS.x264-GKNByNW","amp;tr":["udp%3A%2F%2Ftracker.openbittorrent.com%3A80","udp%3A%2F%2Fopen.demonii.com%3A1337","udp%3A%2F%2Ftracker.coppersurfer.tk%3A6969","udp%3A%2F%2Fexodus.desync.com%3A6969"],"infoHash":"62519395f2351f688761773eb7e5892f8fed5500","infoHashBuffer":{"type":"Buffer","data":[98,81,147,149,242,53,31,104,135,97,119,62,183,229,137,47,143,237,85,0]},"announce":[],"urlList":[]}}